<svg width="14" height="15" viewBox="0 0 14 15" fill="none" xmlns="http://www.w3.org/2000/svg">
<path fill-rule="evenodd" clip-rule="evenodd" d="M13.5587 6.91771L13.4059 8.5412C13.1542 11.2163 13.0283 12.5538 12.2399 13.3603C11.4514 14.1668 10.2698 14.1668 7.90653 14.1668H6.0933C3.73003 14.1668 2.54839 14.1668 1.75998 13.3603C0.97157 12.5538 0.845687 11.2163 0.59392 8.5412L0.441124 6.91771C0.321119 5.64263 0.261116 5.00509 0.479242 4.74155C0.597238 4.59898 0.75769 4.51163 0.929243 4.49656C1.24638 4.46871 1.64464 4.9221 2.44117 5.82888C2.8531 6.29782 3.05906 6.5323 3.28883 6.56861C3.41615 6.58873 3.54587 6.56805 3.66342 6.50888C3.87559 6.40211 4.01705 6.11224 4.29997 5.53251L5.79121 2.47673C6.32582 1.38124 6.59312 0.833496 6.99992 0.833496C7.40672 0.833496 7.67402 1.38124 8.20863 2.47673L9.69987 5.53251C9.98279 6.11224 10.1242 6.40211 10.3364 6.50888C10.454 6.56805 10.5837 6.58873 10.711 6.56861C10.9408 6.5323 11.1467 6.29782 11.5587 5.82888C12.3552 4.9221 12.7535 4.46871 13.0706 4.49656C13.2421 4.51163 13.4026 4.59898 13.5206 4.74155C13.7387 5.00509 13.6787 5.64263 13.5587 6.91771ZM4.49992 11.5002C4.49992 11.224 4.72378 11.0002 4.99992 11.0002H8.99992C9.27606 11.0002 9.49992 11.224 9.49992 11.5002C9.49992 11.7763 9.27606 12.0002 8.99992 12.0002H4.99992C4.72378 12.0002 4.49992 11.7763 4.49992 11.5002Z" fill="#313E56"/>
</svg>
