<svg width="20" height="19" viewBox="0 0 20 19" fill="none" xmlns="http://www.w3.org/2000/svg">
<path d="M12.6646 0.329344C13.0351 0.144102 13.4856 0.29427 13.6708 0.664754L15.872 5.06708C17.2251 5.17102 18.0742 5.43643 18.6221 6.11413C19.0575 6.65271 19.1984 7.32275 19.1466 8.25016H0.853462C0.801684 7.32275 0.942605 6.65271 1.378 6.11413C1.92585 5.43644 2.77494 5.17103 4.12802 5.06708L6.32918 0.664754C6.51442 0.29427 6.96493 0.144102 7.33541 0.329344C7.70589 0.514586 7.85606 0.965091 7.67082 1.33557L5.83589 5.00543C6.31911 5.00016 6.84638 5.00016 7.42196 5.00016H12.5781C13.1537 5.00016 13.6809 5.00016 14.1641 5.00543L12.3292 1.33557C12.1439 0.965091 12.2941 0.514586 12.6646 0.329344Z" fill="#838B9A"/>
<path fill-rule="evenodd" clip-rule="evenodd" d="M1.55514 12.2573C1.34814 11.2913 1.17096 10.4645 1.04514 9.75016H18.9549C18.8291 10.4645 18.6519 11.2913 18.4449 12.2573L18.0164 14.2573C17.5294 16.5299 17.2859 17.6662 16.4608 18.3332C15.6357 19.0002 14.4737 19.0002 12.1495 19.0002H7.85053C5.52639 19.0002 4.36432 19.0002 3.53925 18.3332C2.71418 17.6662 2.47069 16.5299 1.98372 14.2573L1.55514 12.2573ZM8 11.2502C7.58579 11.2502 7.25 11.586 7.25 12.0002C7.25 12.4144 7.58579 12.7502 8 12.7502H12C12.4142 12.7502 12.75 12.4144 12.75 12.0002C12.75 11.586 12.4142 11.2502 12 11.2502H8Z" fill="#838B9A"/>
</svg>
